<svg t="1679578151535" class="icon" viewBox="0 0 1024 1024" version="1.1" xmlns="http://www.w3.org/2000/svg" p-id="3928" width="200" height="200"><path d="M712.704 375.2448l-0.3328-0.128c-0.1792-0.0768-0.3584-0.1536-0.512-0.3072a2.56 2.56 0 0 1-0.6656-2.176l18.0224-110.1824 84.5312 84.5312-87.9104 37.4016a1.9456 1.9456 0 0 1-0.768 0.128h-0.3584a2.3808 2.3808 0 0 1-0.4608-0.384 40.0128 40.0128 0 0 0-11.5456-8.8832z m122.624-6.7072l90.368 90.368c18.7648 18.7904 28.16 28.16 31.5904 39.04 0.512 1.6128 0.9216 3.2 1.2544 4.864l-215.9872-91.4688a16.9728 16.9728 0 0 0-0.3584-0.128c-0.8448-0.3584-1.8688-0.768-1.8688-1.6384 0-0.896 1.024-1.3056 1.8944-1.664l0.2816-0.1024z m119.5264 163.2768c-4.6592 8.7808-13.7728 17.8688-29.1584 33.28l-101.888 101.888-131.7888-27.4688-0.6912-0.128c-1.1776-0.2048-2.4064-0.4096-2.4064-1.4592a39.7824 39.7824 0 0 0-15.2832-27.8016c-0.512-0.5376-0.384-1.3824-0.2304-2.1504 0-0.128 0-0.256 0.0512-0.3328l24.7808-152.1664 0.1024-0.512c0.128-1.1776 0.3584-2.5088 1.408-2.5088a40.3456 40.3456 0 0 0 27.0336-15.5136c0.2048-0.256 0.3584-0.512 0.64-0.64 0.7424-0.3328 1.6128 0 2.3808 0.3328l225.024 95.1808z m-154.4704 158.5664l-167.552 167.5776 28.672-176.2816 0.0512-0.256a3.328 3.328 0 0 1 0.128-0.6656c0.256-0.5632 0.8448-0.768 1.4336-1.024l0.256-0.1024a43.136 43.136 0 0 0 16.2304-12.0576c0.5376-0.6656 1.2288-1.28 2.0992-1.408a2.0992 2.0992 0 0 1 0.6656 0l117.9904 24.2432z m-203.008 203.008l-18.8928 18.9184-208.8192-301.7728a9.8816 9.8816 0 0 0-0.2304-0.3328c-0.3328-0.4352-0.6656-0.896-0.6144-1.408 0.0256-0.3584 0.256-0.6912 0.512-0.9728l0.256-0.3072c0.6144-0.9216 1.152-1.8688 1.7408-2.8672l0.4608-0.8192 0.0768-0.0768c0.3328-0.5376 0.64-1.0752 1.1776-1.3824 0.512-0.256 1.1776-0.1536 1.7152-0.0256l231.3216 47.6928a3.84 3.84 0 0 1 1.792 0.768c0.2816 0.3072 0.3584 0.64 0.4352 1.024a40.96 40.96 0 0 0 23.9616 27.392c0.64 0.3328 0.3584 1.024 0.0768 1.792a5.5552 5.5552 0 0 0-0.3584 1.0752l-34.6368 211.328z m-39.4752 39.4496c-13.9264 13.7728-22.1184 21.0688-31.4112 24.0128a46.6432 46.6432 0 0 1-28.1088 0c-10.88-3.456-20.2752-12.8-39.04-31.616l-209.664-209.664 54.7584-84.9664a3.5072 3.5072 0 0 1 0.9216-1.1008c0.5888-0.4096 1.4336-0.2304 2.1248 0a56.7552 56.7552 0 0 0 38.1952-1.92c0.64-0.256 1.28-0.4096 1.7408 0.0512a4.4288 4.4288 0 0 1 0.6656 0.7424l209.8176 304.4864z m-328.448-237.4912l-48.128-48.128 94.976-40.4992a1.9712 1.9712 0 0 1 0.7936-0.1792c0.768 0 1.28 0.7936 1.6896 1.536a67.84 67.84 0 0 0 3.0208 4.2752l0.3072 0.384c0.256 0.384 0.0768 0.768-0.1792 1.152l-52.48 81.4592zM160.0256 625.92l-60.8768-60.8512c-10.3424-10.368-17.8432-17.8688-23.0656-24.32l185.0368 38.3744a19.584 19.584 0 0 0 0.6912 0.128c1.152 0.1792 2.4064 0.384 2.4064 1.4592 0 1.152-1.3824 1.6896-2.56 2.1504l-0.512 0.2304z m-94.592-116.48a46.6432 46.6432 0 0 1 2.0992-11.52c3.456-10.88 12.8256-20.224 31.616-39.04l77.8752-77.8752a50726.4 50726.4 0 0 0 107.8784 155.904c0.6144 0.8448 1.3312 1.792 0.6144 2.4832a64.7168 64.7168 0 0 0-9.216 12.288 3.7376 3.7376 0 0 1-1.1776 1.4592c-0.3072 0.2048-0.6144 0.128-0.9728 0.0512h-0.0512l-208.64-43.776z m132.4544-149.2736l104.704-104.704c9.856 4.3008 45.6704 19.4304 77.696 32.9472 24.2432 10.24 46.336 19.584 53.2992 22.6048 0.6912 0.2816 1.3312 0.5632 1.6384 1.28 0.1792 0.4096 0.1024 0.9472 0 1.3824a46.6944 46.6944 0 0 0 12.1856 42.624c0.7168 0.7168 0 1.7152-0.5888 2.56l-0.3328 0.512-106.3424 164.6848a3.2256 3.2256 0 0 1-0.9984 1.152c-0.5632 0.3584-1.3568 0.2048-1.9968 0.0256a53.0176 53.0176 0 0 0-12.672-1.7152c-3.8144 0-7.9616 0.6912-12.16 1.4592-0.512 0.0768-0.9216 0.1536-1.28-0.1024a4.8896 4.8896 0 0 1-1.0496-1.2032z m125.8496-125.8752l135.5776-135.5776c18.7648-18.7648 28.16-28.16 39.04-31.5904a46.6432 46.6432 0 0 1 28.1088 0c10.8544 3.4304 20.2496 12.8256 39.04 31.5904l29.3632 29.3888-96.4096 149.3248a3.6096 3.6096 0 0 1-0.9472 1.1264c-0.5888 0.384-1.408 0.2304-2.0992 0a48.896 48.896 0 0 0-44.8 8.6272c-0.6144 0.64-1.536 0.256-2.3296-0.0768-12.5952-5.4784-110.5152-46.848-124.544-52.8128z m291.6096-85.7088l89.0368 89.0112-21.4528 132.864v0.3584a3.1488 3.1488 0 0 1-0.1792 0.8704c-0.256 0.4864-0.7168 0.5632-1.1776 0.7168a42.6752 42.6752 0 0 0-12.7744 6.3488 3.584 3.584 0 0 0-0.4608 0.4096c-0.256 0.256-0.512 0.512-0.9472 0.5888a2.6624 2.6624 0 0 1-0.9984-0.1792l-135.6544-57.6256-0.256-0.128c-0.8704-0.3328-1.8944-0.768-1.8944-1.6384a51.2512 51.2512 0 0 0-7.2192-21.3504c-0.6656-1.0752-1.3824-2.176-0.8192-3.2768z m-91.6736 200.6528l127.1808 53.8624c0.6912 0.3328 1.4592 0.64 1.7664 1.3568a2.4832 2.4832 0 0 1 0 1.3312 31.616 31.616 0 0 0-0.7168 6.144v3.5584c0 0.896-0.896 1.28-1.7408 1.6128l-0.256 0.1024a171801.344 171801.344 0 0 1-283.2384 120.6016c-0.384 0-0.8192 0-1.2032-0.384-0.7168-0.7168 0-1.6896 0.6144-2.56a17.7152 17.7152 0 0 0 0.3328-0.4864l104.4992-161.792 0.2048-0.3072c0.5888-0.9728 1.28-2.048 2.4064-2.048l1.0496 0.1536c2.3808 0.3072 4.48 0.6144 6.6048 0.6144 15.872 0 30.5408-7.7056 39.424-20.9152a3.7376 3.7376 0 0 1 0.768-0.9216c0.64-0.4608 1.5616-0.256 2.304 0.0768z m-145.6384 214.1696l286.336-122.112s0.4352 0 0.8192 0.4096c1.5616 1.536 2.8928 2.6112 4.1728 3.584l0.64 0.4096c0.5632 0.3072 1.152 0.6912 1.2032 1.28 0 0.256 0 0.384-0.0512 0.5888l-24.5248 150.6816-0.1024 0.6144c-0.1536 1.152-0.3072 2.4832-1.408 2.4832a40.32 40.32 0 0 0-32 19.7632l-0.128 0.1792c-0.3328 0.512-0.64 1.024-1.1776 1.3312-0.4864 0.2304-1.1008 0.128-1.6384 0l-228.352-47.104c-0.2048-0.0256-3.5328-12.0832-3.7888-12.1088z" fill="#00BFA5" p-id="3929"></path></svg>